<svg width="17" height="17" viewBox="0 0 17 17" fill="none" xmlns="http://www.w3.org/2000/svg">
<path fill-rule="evenodd" clip-rule="evenodd" d="M8.27956 0.538086C3.79088 0.538086 0.179688 4.14928 0.179688 8.63795C0.179688 12.2154 2.5084 15.2528 5.7146 16.3328C6.11959 16.4003 6.25459 16.1641 6.25459 15.9278C6.25459 15.7253 6.25459 15.2191 6.25459 14.5441C3.99338 15.0504 3.52088 13.4641 3.52088 13.4641C3.14964 12.5191 2.60965 12.2829 2.60965 12.2829C1.86716 11.7767 2.67715 11.7767 2.67715 11.7767C3.48713 11.8442 3.92588 12.6204 3.92588 12.6204C4.63462 13.8691 5.81585 13.4979 6.28834 13.2954C6.35584 12.7554 6.55834 12.4179 6.79458 12.2154C5.00586 12.0129 3.11589 11.3042 3.11589 8.19921C3.11589 7.32173 3.41964 6.57924 3.95963 6.03925C3.89213 5.83675 3.58838 5.02676 4.02713 3.87928C4.02713 3.87928 4.70212 3.67678 6.25459 4.72302C6.89583 4.55427 7.60457 4.45302 8.27956 4.45302C8.95455 4.45302 9.66329 4.55427 10.3045 4.72302C11.857 3.67678 12.532 3.87928 12.532 3.87928C12.9707 4.99301 12.7007 5.803 12.5995 6.03925C13.1057 6.61299 13.4432 7.32173 13.4432 8.19921C13.4432 11.3042 11.5533 11.9791 9.73078 12.1816C10.0345 12.4179 10.2708 12.9241 10.2708 13.6666C10.2708 14.7466 10.2708 15.6241 10.2708 15.8941C10.2708 16.0966 10.4058 16.3666 10.8445 16.2991C14.0507 15.2528 16.3794 12.2154 16.3794 8.63795C16.3794 4.14928 12.7682 0.538086 8.27956 0.538086Z" fill="#F9F9F7"/>
</svg>
