<svg width="15" height="13" viewBox="0 0 15 13" fill="none" xmlns="http://www.w3.org/2000/svg">
<path d="M14.2487 2.23327C13.7249 2.46606 13.172 2.61156 12.59 2.69885C13.172 2.34967 13.6376 1.79679 13.8413 1.12752C13.2884 1.44761 12.6773 1.6804 12.0081 1.82589C11.4843 1.27301 10.7277 0.923828 9.91294 0.923828C8.34161 0.923828 7.06126 2.20417 7.06126 3.77551C7.06126 4.0083 7.09036 4.21199 7.14856 4.41568C4.79156 4.29928 2.66735 3.16443 1.24151 1.41851C1.00872 1.85499 0.863225 2.32057 0.863225 2.84435C0.863225 3.8337 1.3579 4.70667 2.14357 5.23044C1.67799 5.20135 1.24151 5.08495 0.834127 4.88126V4.91036C0.834127 6.3071 1.82348 7.47105 3.13293 7.73294C2.90014 7.79114 2.63825 7.82023 2.37636 7.82023C2.20177 7.82023 1.99808 7.79114 1.82348 7.76204C2.20177 8.89689 3.24932 9.74075 4.50057 9.74075C3.51121 10.4973 2.28906 10.9629 0.950522 10.9629C0.717731 10.9629 0.484941 10.9629 0.28125 10.9338C1.5616 11.7486 3.04563 12.2141 4.67516 12.2141C9.94204 12.2141 12.8228 7.84933 12.8228 4.06649C12.8228 3.9501 12.8228 3.80461 12.8228 3.68821C13.3757 3.30993 13.8704 2.81525 14.2487 2.23327Z" fill="#F9F9F7"/>
</svg>
