<svg width="56" height="56" viewBox="0 0 56 56" fill="none" xmlns="http://www.w3.org/2000/svg">
<g id="japanese-food">
<path id="Vector" d="M47.6695 1.30371C47.3609 1.12568 46.9931 1.07495 46.6466 1.16262C46.3 1.25029 46.0029 1.46922 45.8203 1.77151L36.1489 17.8629C36.0993 17.9464 36.0593 18.035 36.0295 18.1271C34.9474 18.5211 33.9374 19.0846 33.0387 19.7958C30.1083 14.9062 24.7391 11.8274 18.8732 11.8274C9.82213 11.8274 2.45967 19.0482 2.43444 27.9316H0.300903L0.491673 29.4238C1.60183 38.0969 7.04798 45.6724 14.8787 49.6614V54.7825H35.0843C37.6455 54.7825 39.7292 52.7342 39.7292 50.2181V49.662C47.5624 45.6712 53.0061 38.0957 54.1187 29.4238L54.3095 27.9304H50.4566C50.4387 23.3962 47.4781 19.5413 43.36 18.086L55.4264 6.68162C55.9631 6.17453 55.9803 5.33442 55.4621 4.80739C55.3394 4.68191 55.1926 4.58142 55.0303 4.51166C54.868 4.44189 54.6932 4.40422 54.5161 4.4008C54.3389 4.39738 54.1628 4.42827 53.9978 4.4917C53.8328 4.55514 53.6821 4.64988 53.5544 4.77052L40.1132 17.4761C39.9926 17.4713 39.8726 17.458 39.7501 17.458C39.6726 17.458 39.5981 17.4689 39.5218 17.4701L48.1458 3.11992C48.236 2.96995 48.2952 2.80401 48.3201 2.63157C48.3449 2.45913 48.3349 2.28357 48.2907 2.11491C48.2465 1.94626 48.1689 1.78781 48.0623 1.64863C47.9557 1.50944 47.8222 1.39223 47.6695 1.30371ZM18.8726 14.4801C24.04 14.4801 28.7501 17.3371 31.0929 21.8133C30.2388 22.967 29.6332 24.2797 29.3132 25.6711C28.2394 20.9762 23.9698 17.4568 18.8726 17.4568C12.9852 17.4568 8.19567 22.1517 8.17044 27.931H5.13537C5.15998 20.5108 11.3114 14.4801 18.8726 14.4801ZM18.8726 23.0934C16.1464 23.0934 13.928 25.2601 13.9027 27.931H10.872C10.8972 23.6144 14.4744 20.1101 18.8726 20.1101C23.272 20.1101 26.8529 23.6144 26.8757 27.931H23.8412C23.8172 25.2601 21.5987 23.0934 18.8726 23.0934ZM21.1384 27.9316H16.6067C16.6188 27.3485 16.8628 26.7933 17.2866 26.3848C17.7103 25.9763 18.2801 25.7471 18.8738 25.7461C19.4673 25.7472 20.0367 25.9766 20.46 26.3852C20.8833 26.7937 21.1269 27.3488 21.1384 27.9316ZM51.1975 30.5843C49.6966 38.2927 44.3741 44.8643 36.9975 48.012H32.6744V50.6653H36.9686C36.8675 51.0816 36.6267 51.4524 36.2851 51.718C35.9434 51.9837 35.5207 52.1287 35.0849 52.1298H17.5803V50.6653H22.6443V48.012H17.6129C10.2363 44.8661 4.91321 38.2927 3.41106 30.5843H51.1975ZM37.4849 27.9316C37.4968 27.3488 37.7405 26.7938 38.1639 26.3853C38.5873 25.9768 39.1567 25.7474 39.7501 25.7461C40.3441 25.7466 40.9143 25.9757 41.3383 26.3842C41.7624 26.7928 42.0065 27.3483 42.0184 27.9316H37.4849ZM39.7501 20.1107C44.1514 20.1107 47.7335 23.615 47.7569 27.9316H44.7206C44.696 25.2607 42.4769 23.094 39.7501 23.094C37.024 23.094 34.8074 25.2607 34.7827 27.9316H31.7495C31.7741 23.615 35.3514 20.1107 39.7501 20.1107Z" fill="#F9F9F7"/>
<path id="Vector_2" d="M39.1742 43.4137C39.3902 43.4137 39.6086 43.3635 39.8098 43.2565C41.4592 42.3894 42.9066 41.1944 44.0599 39.7477C45.2131 38.301 46.047 36.6342 46.5083 34.8536C46.5525 34.6846 46.5623 34.5086 46.5371 34.3358C46.5119 34.163 46.4522 33.9968 46.3615 33.8468C46.2708 33.6967 46.1507 33.5657 46.0083 33.4612C45.8659 33.3568 45.704 33.281 45.5317 33.2382C45.3594 33.1954 45.1802 33.1865 45.0043 33.2118C44.8285 33.2372 44.6595 33.2964 44.507 33.3861C44.3546 33.4757 44.2216 33.5941 44.1158 33.7343C44.01 33.8745 43.9334 34.0339 43.8905 34.2033C43.5222 35.6264 42.8561 36.9586 41.9346 38.1149C41.0131 39.2712 39.8565 40.2263 38.5385 40.9193C38.2727 41.0583 38.0618 41.2805 37.9396 41.5508C37.8173 41.821 37.7906 42.1237 37.8637 42.4105C37.9368 42.6974 38.1055 42.952 38.343 43.1338C38.5805 43.3156 38.8731 43.4141 39.1742 43.4137Z" fill="#F9F9F7"/>
<path id="Vector_3" d="M35.9059 45.5061C36.7902 45.5061 37.5071 44.802 37.5071 43.9335C37.5071 43.0649 36.7902 42.3608 35.9059 42.3608C35.0215 42.3608 34.3046 43.0649 34.3046 43.9335C34.3046 44.802 35.0215 45.5061 35.9059 45.5061Z" fill="#F9F9F7"/>
</g>
</svg>
