<svg width="17" height="18" viewBox="0 0 17 18" fill="none" xmlns="http://www.w3.org/2000/svg">
<path d="M8.49899 2.06389C10.7599 2.06389 11.0276 2.07236 11.9208 2.11309C12.4578 2.11966 12.9897 2.21826 13.4933 2.40462C13.8586 2.54548 14.1903 2.76127 14.4671 3.03809C14.744 3.3149 14.9597 3.64662 15.1006 4.01188C15.287 4.51555 15.3856 5.04745 15.3921 5.58446C15.4325 6.4776 15.4413 6.74534 15.4413 9.00623C15.4413 11.2671 15.4329 11.5349 15.3921 12.428C15.3856 12.965 15.287 13.4969 15.1006 14.0006C14.9597 14.3658 14.744 14.6976 14.4671 14.9744C14.1903 15.2512 13.8586 15.467 13.4933 15.6078C12.9897 15.7942 12.4578 15.8928 11.9208 15.8994C11.028 15.9397 10.7603 15.9486 8.49899 15.9486C6.2377 15.9486 5.96996 15.9401 5.07722 15.8994C4.54021 15.8928 4.00831 15.7942 3.50464 15.6078C3.13938 15.467 2.80766 15.2512 2.53085 14.9744C2.25403 14.6976 2.03824 14.3658 1.89738 14.0006C1.71102 13.4969 1.61242 12.965 1.60585 12.428C1.56552 11.5349 1.55665 11.2671 1.55665 9.00623C1.55665 6.74534 1.56512 6.4776 1.60585 5.58446C1.61242 5.04745 1.71102 4.51555 1.89738 4.01188C2.03824 3.64662 2.25403 3.3149 2.53085 3.03809C2.80766 2.76127 3.13938 2.54548 3.50464 2.40462C4.00831 2.21826 4.54021 2.11966 5.07722 2.11309C5.97036 2.07276 6.2381 2.06389 8.49899 2.06389ZM8.49899 0.538086C6.2006 0.538086 5.91109 0.547763 5.00786 0.588892C4.30506 0.602871 3.60972 0.735941 2.95141 0.982441C2.38669 1.19521 1.8752 1.52864 1.45262 1.95946C1.02141 2.38219 0.687699 2.89397 0.474798 3.45905C0.228298 4.11736 0.095229 4.8127 0.08125 5.51551C0.0409274 6.41792 0.03125 6.70744 0.03125 9.00583C0.03125 11.3042 0.0409274 11.5937 0.0820564 12.497C0.0960354 13.1998 0.229105 13.8951 0.475605 14.5534C0.688269 15.1184 1.0217 15.6302 1.45262 16.053C1.87543 16.4839 2.38721 16.8174 2.95222 17.03C3.61052 17.2765 4.30587 17.4096 5.00867 17.4236C5.91189 17.4639 6.2002 17.4744 8.4998 17.4744C10.7994 17.4744 11.0877 17.4647 11.9909 17.4236C12.6937 17.4096 13.3891 17.2765 14.0474 17.03C14.6097 16.8121 15.1204 16.4791 15.5467 16.0525C15.973 15.6259 16.3056 15.1151 16.5232 14.5526C16.7697 13.8943 16.9028 13.199 16.9167 12.4962C16.9571 11.5937 16.9667 11.3042 16.9667 9.00583C16.9667 6.70744 16.9571 6.41793 16.9159 5.5147C16.9019 4.8119 16.7689 4.11655 16.5224 3.45825C16.3097 2.89324 15.9763 2.38146 15.5454 1.95865C15.1225 1.52773 14.6108 1.1943 14.0458 0.981634C13.3875 0.735134 12.6921 0.602065 11.9893 0.588086C11.0869 0.547763 10.7974 0.538086 8.49899 0.538086Z" fill="#F9F9F7"/>
<path d="M8.49683 4.66211C7.6368 4.66211 6.79608 4.91714 6.08099 5.39494C5.3659 5.87275 4.80856 6.55188 4.47944 7.34644C4.15032 8.141 4.06421 9.01532 4.23199 9.85882C4.39978 10.7023 4.81392 11.4771 5.42205 12.0853C6.03019 12.6934 6.80499 13.1075 7.6485 13.2753C8.492 13.4431 9.36632 13.357 10.1609 13.0279C10.9554 12.6988 11.6346 12.1414 12.1124 11.4263C12.5902 10.7112 12.8452 9.87053 12.8452 9.0105C12.8452 7.85723 12.3871 6.7512 11.5716 5.93572C10.7561 5.12024 9.65009 4.66211 8.49683 4.66211ZM8.49683 11.8331C7.93857 11.8331 7.39286 11.6675 6.92868 11.3574C6.46451 11.0472 6.10274 10.6064 5.8891 10.0907C5.67547 9.57489 5.61957 9.00736 5.72848 8.45984C5.83739 7.91231 6.10622 7.40938 6.50096 7.01463C6.89571 6.61989 7.39864 6.35106 7.94617 6.24215C8.49369 6.13324 9.06122 6.18914 9.57698 6.40277C10.0927 6.61641 10.5336 6.97818 10.8437 7.44235C11.1539 7.90653 11.3194 8.45224 11.3194 9.0105C11.3194 9.75909 11.022 10.477 10.4927 11.0064C9.96336 11.5357 9.24542 11.8331 8.49683 11.8331Z" fill="#F9F9F7"/>
<path d="M13.0318 5.50394C13.5929 5.50394 14.0479 5.049 14.0479 4.48781C14.0479 3.92662 13.5929 3.47168 13.0318 3.47168C12.4706 3.47168 12.0156 3.92662 12.0156 4.48781C12.0156 5.049 12.4706 5.50394 13.0318 5.50394Z" fill="#F9F9F7"/>
</svg>
