<svg width="16" height="16" viewBox="0 0 16 16" fill="none" xmlns="http://www.w3.org/2000/svg">
<g id="Icon/Outline/shopping-cart">
<path id="Icon" d="M1.88391 1.88379H3.13974L3.39091 3.13962M4.39558 8.16296H10.6747L13.1864 3.13962H3.39091M4.39558 8.16296L3.39091 3.13962M4.39558 8.16296L2.95583 9.6027C2.56027 9.99827 2.84042 10.6746 3.39984 10.6746H10.6747M10.6747 10.6746C9.98117 10.6746 9.41891 11.2369 9.41891 11.9305C9.41891 12.624 9.98117 13.1863 10.6747 13.1863C11.3683 13.1863 11.9306 12.624 11.9306 11.9305C11.9306 11.2369 11.3683 10.6746 10.6747 10.6746ZM5.65141 11.9305C5.65141 12.624 5.08916 13.1863 4.39558 13.1863C3.702 13.1863 3.13974 12.624 3.13974 11.9305C3.13974 11.2369 3.702 10.6746 4.39558 10.6746C5.08916 10.6746 5.65141 11.2369 5.65141 11.9305Z" stroke="#F9F9F7" stroke-width="1.5" stroke-linecap="round" stroke-linejoin="round"/>
</g>
</svg>
