<svg width="14" height="14" viewBox="0 0 14 14" fill="none" xmlns="http://www.w3.org/2000/svg">
<path d="M7.24515 1.20053C9.00031 1.20053 9.20816 1.2071 9.90153 1.23872C10.3184 1.24382 10.7313 1.32037 11.1223 1.46504C11.4059 1.5744 11.6634 1.74191 11.8783 1.95681C12.0932 2.17171 12.2607 2.42922 12.3701 2.71278C12.5148 3.10379 12.5913 3.51671 12.5964 3.9336C12.6277 4.62696 12.6346 4.83481 12.6346 6.58998C12.6346 8.34514 12.628 8.55299 12.5964 9.24635C12.5913 9.66324 12.5148 10.0762 12.3701 10.4672C12.2607 10.7507 12.0932 11.0082 11.8783 11.2231C11.6634 11.438 11.4059 11.6056 11.1223 11.7149C10.7313 11.8596 10.3184 11.9361 9.90153 11.9412C9.20848 11.9725 9.00062 11.9794 7.24515 11.9794C5.48967 11.9794 5.28182 11.9729 4.58877 11.9412C4.17189 11.9361 3.75896 11.8596 3.36795 11.7149C3.0844 11.6056 2.82688 11.438 2.61199 11.2231C2.39709 11.0082 2.22957 10.7507 2.12021 10.4672C1.97554 10.0762 1.89899 9.66324 1.89389 9.24635C1.86259 8.55299 1.8557 8.34514 1.8557 6.58998C1.8557 4.83481 1.86228 4.62696 1.89389 3.9336C1.89899 3.51671 1.97554 3.10379 2.12021 2.71278C2.22957 2.42922 2.39709 2.17171 2.61199 1.95681C2.82688 1.74191 3.0844 1.5744 3.36795 1.46504C3.75896 1.32037 4.17189 1.24382 4.58877 1.23872C5.28214 1.20742 5.48999 1.20053 7.24515 1.20053ZM7.24515 0.0160217C5.46088 0.0160217 5.23612 0.0235344 4.53493 0.0554636C3.98933 0.0663157 3.44953 0.16962 2.93848 0.360981C2.50007 0.526157 2.103 0.785002 1.77494 1.11945C1.44019 1.44763 1.18112 1.84493 1.01584 2.28362C0.824481 2.79467 0.721177 3.33447 0.710325 3.88007C0.679022 4.58063 0.671509 4.80539 0.671509 6.58966C0.671509 8.37394 0.679021 8.59869 0.710951 9.29988C0.721803 9.84548 0.825107 10.3853 1.01647 10.8963C1.18156 11.335 1.44041 11.7323 1.77494 12.0605C2.10318 12.395 2.50048 12.6539 2.9391 12.819C3.45015 13.0103 3.98996 13.1136 4.53556 13.1245C5.23675 13.1558 5.46056 13.1639 7.24578 13.1639C9.03099 13.1639 9.25481 13.1564 9.95599 13.1245C10.5016 13.1136 11.0414 13.0103 11.5524 12.819C11.989 12.6498 12.3854 12.3913 12.7164 12.0601C13.0473 11.729 13.3055 11.3324 13.4745 10.8957C13.6658 10.3847 13.7691 9.84485 13.78 9.29926C13.8113 8.59869 13.8188 8.37394 13.8188 6.58966C13.8188 4.80539 13.8113 4.58063 13.7793 3.87945C13.7685 3.33385 13.6652 2.79404 13.4738 2.28299C13.3087 1.84436 13.0499 1.44706 12.7154 1.11883C12.3871 0.784299 11.9898 0.52545 11.5512 0.360355C11.0401 0.168994 10.5003 0.0656897 9.95474 0.0548375C9.25418 0.0235345 9.02942 0.0160217 7.24515 0.0160217Z" fill="#F9F9F7"/>
</svg>
