<svg width="11" height="10" viewBox="0 0 11 10" fill="none" xmlns="http://www.w3.org/2000/svg">
<path d="M10.9167 1.66135C10.5101 1.84207 10.0809 1.95502 9.62911 2.02279C10.0809 1.75171 10.4423 1.3225 10.6005 0.802935C10.1713 1.05142 9.69688 1.23214 9.17731 1.34509C8.77069 0.915884 8.18336 0.644806 7.55084 0.644806C6.33099 0.644806 5.33704 1.63876 5.33704 2.85861C5.33704 3.03933 5.35963 3.19746 5.40481 3.35559C3.57503 3.26523 1.92597 2.38422 0.819073 1.02883C0.638354 1.36768 0.525405 1.72912 0.525405 2.13573C0.525405 2.90379 0.909432 3.58148 1.51936 3.9881C1.15792 3.96551 0.819073 3.87515 0.502815 3.71702V3.73961C0.502815 4.82392 1.27087 5.72752 2.28741 5.93083C2.10669 5.97601 1.90338 5.9986 1.70008 5.9986C1.56454 5.9986 1.40641 5.97601 1.27087 5.95342C1.56454 6.83442 2.37777 7.48952 3.34913 7.48952C2.58108 8.07686 1.63231 8.4383 0.593175 8.4383C0.412456 8.4383 0.231737 8.4383 0.0736084 8.41571C1.06756 9.04822 2.21964 9.40966 3.48467 9.40966C7.57343 9.40966 9.80983 6.02119 9.80983 3.08451C9.80983 2.99415 9.80983 2.8812 9.80983 2.79084C10.239 2.49717 10.6231 2.11314 10.9167 1.66135Z" fill="#F9F9F7"/>
</svg>
