<svg width="14" height="13" viewBox="0 0 14 13" fill="none" xmlns="http://www.w3.org/2000/svg">
<path fill-rule="evenodd" clip-rule="evenodd" d="M7.02194 0.0160217C3.53731 0.0160217 0.733887 2.81945 0.733887 6.30408C0.733887 9.0813 2.5417 11.4393 5.03073 12.2777C5.34513 12.3301 5.44993 12.1467 5.44993 11.9633C5.44993 11.8061 5.44993 11.4131 5.44993 10.8891C3.69451 11.2821 3.32771 10.0507 3.32771 10.0507C3.03951 9.31711 2.6203 9.1337 2.6203 9.1337C2.0439 8.7407 2.6727 8.7407 2.6727 8.7407C3.30151 8.7931 3.64211 9.39571 3.64211 9.39571C4.19232 10.3651 5.10933 10.0769 5.47613 9.91971C5.52853 9.50051 5.68573 9.2385 5.86913 9.0813C4.48052 8.9241 3.01331 8.3739 3.01331 5.96347C3.01331 5.28227 3.24911 4.70586 3.66831 4.28666C3.61591 4.12946 3.38011 3.50065 3.72071 2.60984C3.72071 2.60984 4.24472 2.45264 5.44993 3.26485C5.94773 3.13385 6.49794 3.05525 7.02194 3.05525C7.54595 3.05525 8.09615 3.13385 8.59396 3.26485C9.79917 2.45264 10.3232 2.60984 10.3232 2.60984C10.6638 3.47445 10.4542 4.10326 10.3756 4.28666C10.7686 4.73206 11.0306 5.28227 11.0306 5.96347C11.0306 8.3739 9.56337 8.8979 8.14855 9.0551C8.38436 9.2385 8.56776 9.63151 8.56776 10.2079C8.56776 11.0463 8.56776 11.7275 8.56776 11.9371C8.56776 12.0943 8.67256 12.3039 9.01316 12.2515C11.5022 11.4393 13.31 9.0813 13.31 6.30408C13.31 2.81945 10.5066 0.0160217 7.02194 0.0160217Z" fill="#F9F9F7"/>
</svg>
