<svg width="14" height="13" viewBox="0 0 14 13" fill="none" xmlns="http://www.w3.org/2000/svg">
<path fill-rule="evenodd" clip-rule="evenodd" d="M7.02219 0.0160217C3.53756 0.0160217 0.734131 2.81945 0.734131 6.30408C0.734131 9.0813 2.54195 11.4393 5.03097 12.2777C5.34537 12.3301 5.45017 12.1467 5.45017 11.9633C5.45017 11.8061 5.45017 11.4131 5.45017 10.8891C3.69476 11.2821 3.32795 10.0507 3.32795 10.0507C3.03975 9.31711 2.62055 9.1337 2.62055 9.1337C2.04414 8.7407 2.67295 8.7407 2.67295 8.7407C3.30175 8.7931 3.64236 9.39571 3.64236 9.39571C4.19256 10.3651 5.10957 10.0769 5.47637 9.91971C5.52877 9.50051 5.68598 9.2385 5.86938 9.0813C4.48076 8.9241 3.01355 8.3739 3.01355 5.96347C3.01355 5.28227 3.24935 4.70586 3.66856 4.28666C3.61616 4.12946 3.38035 3.50065 3.72096 2.60984C3.72096 2.60984 4.24496 2.45264 5.45017 3.26485C5.94798 3.13385 6.49818 3.05525 7.02219 3.05525C7.54619 3.05525 8.0964 3.13385 8.5942 3.26485C9.79941 2.45264 10.3234 2.60984 10.3234 2.60984C10.664 3.47445 10.4544 4.10326 10.3758 4.28666C10.7688 4.73206 11.0308 5.28227 11.0308 5.96347C11.0308 8.3739 9.56361 8.8979 8.1488 9.0551C8.3846 9.2385 8.568 9.63151 8.568 10.2079C8.568 11.0463 8.568 11.7275 8.568 11.9371C8.568 12.0943 8.6728 12.3039 9.01341 12.2515C11.5024 11.4393 13.3102 9.0813 13.3102 6.30408C13.3102 2.81945 10.5068 0.0160217 7.02219 0.0160217Z" fill="#F9F9F7"/>
</svg>
