<svg width="14" height="14" viewBox="0 0 14 14" fill="none" xmlns="http://www.w3.org/2000/svg">
<path d="M7.24527 1.20053C9.00043 1.20053 9.20829 1.2071 9.90165 1.23872C10.3185 1.24382 10.7315 1.32037 11.1225 1.46504C11.406 1.5744 11.6635 1.74191 11.8784 1.95681C12.0933 2.17171 12.2609 2.42922 12.3702 2.71278C12.5149 3.10379 12.5914 3.51671 12.5965 3.9336C12.6278 4.62696 12.6347 4.83481 12.6347 6.58998C12.6347 8.34514 12.6281 8.55299 12.5965 9.24635C12.5914 9.66324 12.5149 10.0762 12.3702 10.4672C12.2609 10.7507 12.0933 11.0082 11.8784 11.2231C11.6635 11.438 11.406 11.6056 11.1225 11.7149C10.7315 11.8596 10.3185 11.9361 9.90165 11.9412C9.2086 11.9725 9.00075 11.9794 7.24527 11.9794C5.4898 11.9794 5.28194 11.9729 4.58889 11.9412C4.17201 11.9361 3.75909 11.8596 3.36808 11.7149C3.08452 11.6056 2.827 11.438 2.61211 11.2231C2.39721 11.0082 2.22969 10.7507 2.12034 10.4672C1.97567 10.0762 1.89912 9.66324 1.89402 9.24635C1.86271 8.55299 1.85583 8.34514 1.85583 6.58998C1.85583 4.83481 1.8624 4.62696 1.89402 3.9336C1.89912 3.51671 1.97567 3.10379 2.12034 2.71278C2.22969 2.42922 2.39721 2.17171 2.61211 1.95681C2.827 1.74191 3.08452 1.5744 3.36808 1.46504C3.75909 1.32037 4.17201 1.24382 4.58889 1.23872C5.28226 1.20742 5.49011 1.20053 7.24527 1.20053ZM7.24527 0.0160217C5.461 0.0160217 5.23624 0.0235344 4.53505 0.0554636C3.98946 0.0663157 3.44965 0.16962 2.9386 0.360981C2.5002 0.526157 2.10312 0.785002 1.77506 1.11945C1.44031 1.44763 1.18124 1.84493 1.01596 2.28362C0.824603 2.79467 0.721299 3.33447 0.710447 3.88007C0.679144 4.58063 0.671631 4.80539 0.671631 6.58966C0.671631 8.37394 0.679144 8.59869 0.711073 9.29988C0.721925 9.84548 0.825229 10.3853 1.01659 10.8963C1.18169 11.335 1.44053 11.7323 1.77506 12.0605C2.1033 12.395 2.5006 12.6539 2.93922 12.819C3.45028 13.0103 3.99008 13.1136 4.53568 13.1245C5.23687 13.1558 5.46068 13.1639 7.2459 13.1639C9.03111 13.1639 9.25493 13.1564 9.95612 13.1245C10.5017 13.1136 11.0415 13.0103 11.5526 12.819C11.9891 12.6498 12.3855 12.3913 12.7165 12.0601C13.0475 11.729 13.3056 11.3324 13.4746 10.8957C13.6659 10.3847 13.7692 9.84485 13.7801 9.29926C13.8114 8.59869 13.8189 8.37394 13.8189 6.58966C13.8189 4.80539 13.8114 4.58063 13.7795 3.87945C13.7686 3.33385 13.6653 2.79404 13.474 2.28299C13.3089 1.84436 13.05 1.44706 12.7155 1.11883C12.3872 0.784299 11.9899 0.52545 11.5513 0.360355C11.0403 0.168994 10.5005 0.0656897 9.95486 0.0548375C9.2543 0.0235345 9.02955 0.0160217 7.24527 0.0160217Z" fill="#F9F9F7"/>
<path d="M7.24364 3.21756C6.57599 3.21756 5.92333 3.41554 5.36819 3.78647C4.81306 4.1574 4.38038 4.68462 4.12488 5.30145C3.86938 5.91828 3.80253 6.59703 3.93278 7.25185C4.06304 7.90668 4.38454 8.50817 4.85665 8.98028C5.32875 9.45238 5.93025 9.77389 6.58507 9.90414C7.2399 10.0344 7.91864 9.96754 8.53548 9.71204C9.15231 9.45654 9.67952 9.02387 10.0505 8.46873C10.4214 7.9136 10.6194 7.26094 10.6194 6.59328C10.6194 5.69798 10.2637 4.83936 9.63064 4.20629C8.99757 3.57322 8.13894 3.21756 7.24364 3.21756ZM7.24364 8.78449C6.81026 8.78449 6.38661 8.65598 6.02627 8.41521C5.66593 8.17444 5.38507 7.83221 5.21923 7.43182C5.05338 7.03143 5.00998 6.59085 5.09453 6.1658C5.17908 5.74074 5.38777 5.35031 5.69422 5.04386C6.00067 4.73741 6.3911 4.52872 6.81616 4.44417C7.24121 4.35962 7.68179 4.40302 8.08218 4.56886C8.48258 4.73471 8.8248 5.01556 9.06557 5.37591C9.30634 5.73625 9.43486 6.1599 9.43486 6.59328C9.43486 7.17443 9.204 7.73177 8.79307 8.1427C8.38213 8.55364 7.82479 8.78449 7.24364 8.78449Z" fill="#F9F9F7"/>
<path d="M10.7642 3.8711C11.1998 3.8711 11.553 3.51793 11.553 3.08226C11.553 2.6466 11.1998 2.29343 10.7642 2.29343C10.3285 2.29343 9.97534 2.6466 9.97534 3.08226C9.97534 3.51793 10.3285 3.8711 10.7642 3.8711Z" fill="#F9F9F7"/>
</svg>
