<svg width="28" height="28" viewBox="0 0 28 28" fill="none" xmlns="http://www.w3.org/2000/svg">
<g id="1">
<circle id="BG" cx="13.9013" cy="13.5855" r="13.5855" fill="#F9F9F7" fill-opacity="0.12"/>
<g id="logo-twitter 2">
<g id="Group">
<path id="Vector" d="M19.9167 10.6613C19.5101 10.8421 19.0809 10.955 18.6291 11.0228C19.0809 10.7517 19.4423 10.3225 19.6005 9.80293C19.1713 10.0514 18.6969 10.2321 18.1773 10.3451C17.7707 9.91588 17.1834 9.64481 16.5508 9.64481C15.331 9.64481 14.337 10.6388 14.337 11.8586C14.337 12.0393 14.3596 12.1975 14.4048 12.3556C12.575 12.2652 10.926 11.3842 9.81907 10.0288C9.63835 10.3677 9.52541 10.7291 9.52541 11.1357C9.52541 11.9038 9.90943 12.5815 10.5194 12.9881C10.1579 12.9655 9.81907 12.8752 9.50282 12.717V12.7396C9.50282 13.8239 10.2709 14.7275 11.2874 14.9308C11.1067 14.976 10.9034 14.9986 10.7001 14.9986C10.5645 14.9986 10.4064 14.976 10.2709 14.9534C10.5645 15.8344 11.3778 16.4895 12.3491 16.4895C11.5811 17.0769 10.6323 17.4383 9.59317 17.4383C9.41246 17.4383 9.23174 17.4383 9.07361 17.4157C10.0676 18.0482 11.2196 18.4097 12.4847 18.4097C16.5734 18.4097 18.8098 15.0212 18.8098 12.0845C18.8098 11.9941 18.8098 11.8812 18.8098 11.7908C19.239 11.4972 19.6231 11.1131 19.9167 10.6613Z" fill="#F9F9F7"/>
</g>
</g>
</g>
</svg>
