<svg width="28" height="28" viewBox="0 0 28 28" fill="none" xmlns="http://www.w3.org/2000/svg">
<g id="3">
<circle id="BG" cx="14.2435" cy="13.5855" r="13.5855" fill="#F9F9F7" fill-opacity="0.12"/>
<g id="logo-instagram 1">
<g id="Group">
<path id="Vector" d="M14.2451 8.20053C16.0003 8.20053 16.2082 8.2071 16.9015 8.23872C17.3184 8.24382 17.7313 8.32037 18.1223 8.46504C18.4059 8.5744 18.6634 8.74191 18.8783 8.95681C19.0932 9.17171 19.2607 9.42922 19.3701 9.71278C19.5148 10.1038 19.5913 10.5167 19.5964 10.9336C19.6277 11.627 19.6346 11.8348 19.6346 13.59C19.6346 15.3451 19.628 15.553 19.5964 16.2464C19.5913 16.6632 19.5148 17.0762 19.3701 17.4672C19.2607 17.7507 19.0932 18.0082 18.8783 18.2231C18.6634 18.438 18.4059 18.6056 18.1223 18.7149C17.7313 18.8596 17.3184 18.9361 16.9015 18.9412C16.2085 18.9725 16.0006 18.9794 14.2451 18.9794C12.4897 18.9794 12.2818 18.9729 11.5888 18.9412C11.1719 18.9361 10.759 18.8596 10.368 18.7149C10.0844 18.6056 9.82688 18.438 9.61199 18.2231C9.39709 18.0082 9.22957 17.7507 9.12021 17.4672C8.97554 17.0762 8.89899 16.6632 8.89389 16.2464C8.86259 15.553 8.8557 15.3451 8.8557 13.59C8.8557 11.8348 8.86228 11.627 8.89389 10.9336C8.89899 10.5167 8.97554 10.1038 9.12021 9.71278C9.22957 9.42922 9.39709 9.17171 9.61199 8.95681C9.82688 8.74191 10.0844 8.5744 10.368 8.46504C10.759 8.32037 11.1719 8.24382 11.5888 8.23872C12.2821 8.20742 12.49 8.20053 14.2451 8.20053ZM14.2451 7.01602C12.4609 7.01602 12.2361 7.02353 11.5349 7.05546C10.9893 7.06632 10.4495 7.16962 9.93848 7.36098C9.50007 7.52616 9.103 7.785 8.77494 8.11945C8.44019 8.44763 8.18112 8.84493 8.01584 9.28362C7.82448 9.79467 7.72118 10.3345 7.71032 10.8801C7.67902 11.5806 7.67151 11.8054 7.67151 13.5897C7.67151 15.3739 7.67902 15.5987 7.71095 16.2999C7.7218 16.8455 7.82511 17.3853 8.01647 17.8963C8.18156 18.335 8.44041 18.7323 8.77494 19.0605C9.10318 19.395 9.50048 19.6539 9.9391 19.819C10.4502 20.0103 10.99 20.1136 11.5356 20.1245C12.2367 20.1558 12.4606 20.1639 14.2458 20.1639C16.031 20.1639 16.2548 20.1564 16.956 20.1245C17.5016 20.1136 18.0414 20.0103 18.5524 19.819C18.989 19.6498 19.3854 19.3913 19.7164 19.0601C20.0473 18.729 20.3055 18.3324 20.4745 17.8957C20.6658 17.3847 20.7691 16.8449 20.78 16.2993C20.8113 15.5987 20.8188 15.3739 20.8188 13.5897C20.8188 11.8054 20.8113 11.5806 20.7793 10.8794C20.7685 10.3338 20.6652 9.79404 20.4738 9.28299C20.3087 8.84436 20.0499 8.44706 19.7154 8.11883C19.3871 7.7843 18.9898 7.52545 18.5512 7.36036C18.0401 7.16899 17.5003 7.06569 16.9547 7.05484C16.2542 7.02353 16.0294 7.01602 14.2451 7.01602Z" fill="#F9F9F7"/>
<path id="Vector_2" d="M14.2435 10.2176C13.5759 10.2176 12.9232 10.4155 12.3681 10.7865C11.8129 11.1574 11.3803 11.6846 11.1248 12.3014C10.8693 12.9183 10.8024 13.597 10.9327 14.2519C11.0629 14.9067 11.3844 15.5082 11.8565 15.9803C12.3286 16.4524 12.9301 16.7739 13.585 16.9041C14.2398 17.0344 14.9185 16.9675 15.5354 16.712C16.1522 16.4565 16.6794 16.0239 17.0503 15.4687C17.4213 14.9136 17.6192 14.2609 17.6192 13.5933C17.6192 12.698 17.2636 11.8394 16.6305 11.2063C15.9974 10.5732 15.1388 10.2176 14.2435 10.2176ZM14.2435 15.7845C13.8101 15.7845 13.3865 15.656 13.0261 15.4152C12.6658 15.1744 12.385 14.8322 12.2191 14.4318C12.0533 14.0314 12.0099 13.5908 12.0944 13.1658C12.179 12.7407 12.3877 12.3503 12.6941 12.0439C13.0005 11.7374 13.391 11.5287 13.816 11.4442C14.2411 11.3596 14.6817 11.403 15.0821 11.5689C15.4825 11.7347 15.8247 12.0156 16.0654 12.3759C16.3062 12.7363 16.4347 13.1599 16.4347 13.5933C16.4347 14.1744 16.2039 14.7318 15.7929 15.1427C15.382 15.5536 14.8247 15.7845 14.2435 15.7845Z" fill="#F9F9F7"/>
<path id="Vector_3" d="M17.7641 10.8711C18.1997 10.8711 18.5529 10.5179 18.5529 10.0823C18.5529 9.6466 18.1997 9.29343 17.7641 9.29343C17.3284 9.29343 16.9752 9.6466 16.9752 10.0823C16.9752 10.5179 17.3284 10.8711 17.7641 10.8711Z" fill="#F9F9F7"/>
</g>
</g>
</g>
</svg>
