<svg width="28" height="28" viewBox="0 0 28 28" fill="none" xmlns="http://www.w3.org/2000/svg">
<g id="4">
<circle id="BG" cx="14.4145" cy="13.5855" r="13.5855" fill="#F9F9F7" fill-opacity="0.12"/>
<g id="logo-github 1">
<g id="Group">
<path id="Vector" fill-rule="evenodd" clip-rule="evenodd" d="M15.0219 7.01602C11.5373 7.01602 8.73389 9.81945 8.73389 13.3041C8.73389 16.0813 10.5417 18.4393 13.0307 19.2777C13.3451 19.3301 13.4499 19.1467 13.4499 18.9633C13.4499 18.8061 13.4499 18.4131 13.4499 17.8891C11.6945 18.2821 11.3277 17.0507 11.3277 17.0507C11.0395 16.3171 10.6203 16.1337 10.6203 16.1337C10.0439 15.7407 10.6727 15.7407 10.6727 15.7407C11.3015 15.7931 11.6421 16.3957 11.6421 16.3957C12.1923 17.3651 13.1093 17.0769 13.4761 16.9197C13.5285 16.5005 13.6857 16.2385 13.8691 16.0813C12.4805 15.9241 11.0133 15.3739 11.0133 12.9635C11.0133 12.2823 11.2491 11.7059 11.6683 11.2867C11.6159 11.1295 11.3801 10.5007 11.7207 9.60984C11.7207 9.60984 12.2447 9.45264 13.4499 10.2649C13.9477 10.1338 14.4979 10.0552 15.0219 10.0552C15.5459 10.0552 16.0962 10.1338 16.594 10.2649C17.7992 9.45264 18.3232 9.60984 18.3232 9.60984C18.6638 10.4745 18.4542 11.1033 18.3756 11.2867C18.7686 11.7321 19.0306 12.2823 19.0306 12.9635C19.0306 15.3739 17.5634 15.8979 16.1486 16.0551C16.3844 16.2385 16.5678 16.6315 16.5678 17.2079C16.5678 18.0463 16.5678 18.7275 16.5678 18.9371C16.5678 19.0943 16.6726 19.3039 17.0132 19.2515C19.5022 18.4393 21.31 16.0813 21.31 13.3041C21.31 9.81945 18.5066 7.01602 15.0219 7.01602Z" fill="#F9F9F7"/>
</g>
</g>
</g>
</svg>
