<svg width="311" height="48" viewBox="0 0 311 48" fill="none" xmlns="http://www.w3.org/2000/svg">
<path d="M17.6569 16.6569C16.7202 17.5935 14.7616 19.5521 13.4138 20.8999C12.6327 21.681 11.3677 21.6814 10.5866 20.9003C9.26234 19.576 7.34159 17.6553 6.34315 16.6569C3.21895 13.5327 3.21895 8.46734 6.34315 5.34315C9.46734 2.21895 14.5327 2.21895 17.6569 5.34315C20.781 8.46734 20.781 13.5327 17.6569 16.6569Z" stroke="#F9F9F7" stroke-width="2" stroke-linecap="round" stroke-linejoin="round"/>
<path d="M15 11C15 12.6569 13.6569 14 12 14C10.3431 14 9 12.6569 9 11C9 9.34315 10.3431 8 12 8C13.6569 8 15 9.34315 15 11Z" stroke="#F9F9F7" stroke-width="2" stroke-linecap="round" stroke-linejoin="round"/>
<path d="M48.864 17.192C48.1387 17.192 47.4827 17.0587 46.896 16.792C46.32 16.5147 45.8613 16.136 45.52 15.656C45.1893 15.1653 45.024 14.6 45.024 13.96C45.024 13.5013 45.1147 13.0747 45.296 12.68C45.4773 12.2853 45.728 11.944 46.048 11.656C46.3787 11.3573 46.7573 11.1493 47.184 11.032C46.5867 10.8187 46.1227 10.488 45.792 10.04C45.472 9.592 45.312 9.10667 45.312 8.584C45.312 8.02933 45.4507 7.528 45.728 7.08C46.016 6.632 46.4267 6.27467 46.96 6.008C47.4933 5.74133 48.128 5.608 48.864 5.608C49.6107 5.608 50.2453 5.74133 50.768 6.008C51.3013 6.27467 51.712 6.632 52 7.08C52.288 7.528 52.432 8.02933 52.432 8.584C52.432 9.10667 52.2667 9.592 51.936 10.04C51.616 10.488 51.152 10.8187 50.544 11.032C50.992 11.1493 51.376 11.3573 51.696 11.656C52.016 11.944 52.2667 12.2853 52.448 12.68C52.6293 13.0747 52.72 13.5013 52.72 13.96C52.72 14.6 52.5493 15.1653 52.208 15.656C51.8667 16.136 51.408 16.5147 50.832 16.792C50.256 17.0587 49.6 17.192 48.864 17.192ZM48.864 16.008C49.7067 16.008 50.336 15.816 50.752 15.432C51.168 15.0373 51.376 14.52 51.376 13.88C51.376 13.1547 51.1467 12.6053 50.688 12.232C50.24 11.8587 49.632 11.672 48.864 11.672C48.1067 11.672 47.4987 11.8587 47.04 12.232C46.592 12.6053 46.368 13.1547 46.368 13.88C46.368 14.52 46.576 15.0373 46.992 15.432C47.408 15.816 48.032 16.008 48.864 16.008ZM48.864 10.552C49.5467 10.552 50.0853 10.376 50.48 10.024C50.8747 9.672 51.072 9.21867 51.072 8.664C51.072 8.03467 50.8747 7.56 50.48 7.24C50.096 6.92 49.5573 6.76 48.864 6.76C48.192 6.76 47.6587 6.92 47.264 7.24C46.88 7.56 46.688 8.03467 46.688 8.664C46.688 9.21867 46.88 9.672 47.264 10.024C47.6587 10.376 48.192 10.552 48.864 10.552ZM58.438 17.192C57.7233 17.192 57.0727 17.064 56.486 16.808C55.91 16.5413 55.4513 16.1467 55.11 15.624C54.7687 15.1013 54.5873 14.4507 54.566 13.672H55.926C55.9367 14.0987 56.038 14.4933 56.23 14.856C56.4327 15.208 56.7207 15.4907 57.094 15.704C57.4673 15.9173 57.9153 16.024 58.438 16.024C58.9607 16.024 59.398 15.9227 59.75 15.72C60.102 15.5173 60.3687 15.2507 60.55 14.92C60.7313 14.5787 60.822 14.2 60.822 13.784C60.822 13.2613 60.694 12.84 60.438 12.52C60.1927 12.1893 59.8567 11.944 59.43 11.784C59.014 11.624 58.5553 11.544 58.054 11.544H57.222V10.408H58.054C58.79 10.408 59.3607 10.2427 59.766 9.912C60.182 9.57067 60.39 9.10133 60.39 8.504C60.39 8.01333 60.2247 7.60267 59.894 7.272C59.574 6.94133 59.0887 6.776 58.438 6.776C57.8087 6.776 57.3073 6.95733 56.934 7.32C56.5607 7.68267 56.3473 8.14667 56.294 8.712H54.934C54.966 8.104 55.1313 7.56533 55.43 7.096C55.7287 6.62667 56.134 6.264 56.646 6.008C57.158 5.74133 57.7553 5.608 58.438 5.608C59.1633 5.608 59.7713 5.736 60.262 5.992C60.7527 6.248 61.1207 6.58933 61.366 7.016C61.622 7.44267 61.75 7.912 61.75 8.424C61.75 8.79733 61.6807 9.15467 61.542 9.496C61.4033 9.83733 61.1953 10.136 60.918 10.392C60.6513 10.6373 60.3047 10.8133 59.878 10.92C60.3153 11.0053 60.7047 11.176 61.046 11.432C61.398 11.6773 61.6753 11.9973 61.878 12.392C62.0807 12.7867 62.182 13.2507 62.182 13.784C62.182 14.392 62.038 14.9573 61.75 15.48C61.4727 15.992 61.0567 16.408 60.502 16.728C59.9473 17.0373 59.2593 17.192 58.438 17.192ZM65.1139 17L69.4979 6.952H63.3539V5.8H70.8739V6.808L66.5379 17H65.1139ZM79.2068 17L76.1348 5.8H77.5748L79.9908 15.4L82.7428 5.8H84.2308L86.9028 15.432L89.3508 5.8H90.7908L87.6548 17H86.1188L83.4468 7.736L80.7108 17H79.2068ZM91.6621 17.08C91.3955 17.08 91.1715 16.9947 90.9901 16.824C90.8195 16.6427 90.7341 16.424 90.7341 16.168C90.7341 15.912 90.8195 15.6987 90.9901 15.528C91.1715 15.3467 91.3955 15.256 91.6621 15.256C91.9288 15.256 92.1475 15.3467 92.3181 15.528C92.4888 15.6987 92.5741 15.912 92.5741 16.168C92.5741 16.424 92.4888 16.6427 92.3181 16.824C92.1475 16.9947 91.9288 17.08 91.6621 17.08ZM98.7 17V5.8H100.268L104.236 13.624L108.204 5.8H109.788V17H108.444V8.2L104.748 15.432H103.74L100.044 8.232V17H98.7ZM114.728 17.192C114.078 17.192 113.534 17.08 113.096 16.856C112.659 16.6213 112.334 16.3173 112.12 15.944C111.907 15.56 111.8 15.1493 111.8 14.712C111.8 14.168 111.939 13.7093 112.216 13.336C112.504 12.952 112.904 12.664 113.416 12.472C113.939 12.2693 114.547 12.168 115.24 12.168H117.384C117.384 11.6667 117.304 11.2507 117.144 10.92C116.995 10.5893 116.771 10.3387 116.472 10.168C116.174 9.99733 115.811 9.912 115.384 9.912C114.872 9.912 114.43 10.04 114.056 10.296C113.683 10.552 113.454 10.9307 113.368 11.432H111.992C112.056 10.856 112.248 10.376 112.568 9.992C112.899 9.59733 113.315 9.29867 113.816 9.096C114.318 8.88267 114.84 8.776 115.384 8.776C116.131 8.776 116.75 8.91467 117.24 9.192C117.731 9.45867 118.099 9.83733 118.344 10.328C118.6 10.808 118.728 11.3733 118.728 12.024V17H117.528L117.448 15.576C117.342 15.8 117.203 16.0133 117.032 16.216C116.872 16.408 116.68 16.5787 116.456 16.728C116.243 16.8667 115.992 16.9787 115.704 17.064C115.416 17.1493 115.091 17.192 114.728 17.192ZM114.936 16.056C115.31 16.056 115.646 15.9813 115.944 15.832C116.254 15.672 116.515 15.4587 116.728 15.192C116.942 14.9253 117.102 14.6267 117.208 14.296C117.326 13.9547 117.384 13.608 117.384 13.256V13.208H115.352C114.84 13.208 114.424 13.272 114.104 13.4C113.784 13.5173 113.555 13.688 113.416 13.912C113.278 14.1253 113.208 14.3707 113.208 14.648C113.208 14.936 113.272 15.1867 113.4 15.4C113.539 15.6027 113.736 15.7627 113.992 15.88C114.248 15.9973 114.563 16.056 114.936 16.056ZM120.792 17V8.968H122.008L122.12 10.504C122.301 10.1413 122.53 9.832 122.808 9.576C123.096 9.32 123.437 9.12267 123.832 8.984C124.226 8.84533 124.674 8.776 125.176 8.776V10.184H124.712C124.37 10.184 124.045 10.232 123.736 10.328C123.426 10.4133 123.149 10.5573 122.904 10.76C122.669 10.952 122.482 11.224 122.344 11.576C122.205 11.928 122.136 12.36 122.136 12.872V17H120.792ZM129.722 17.192C129.071 17.192 128.495 17.0853 127.994 16.872C127.493 16.648 127.093 16.3333 126.794 15.928C126.506 15.5227 126.325 15.048 126.25 14.504H127.626C127.69 14.7813 127.807 15.0427 127.978 15.288C128.149 15.5227 128.378 15.7093 128.666 15.848C128.965 15.9867 129.322 16.056 129.738 16.056C130.122 16.056 130.437 16.0027 130.682 15.896C130.927 15.7787 131.109 15.624 131.226 15.432C131.343 15.24 131.402 15.032 131.402 14.808C131.402 14.488 131.322 14.2427 131.162 14.072C131.013 13.9013 130.789 13.768 130.49 13.672C130.191 13.5653 129.834 13.4747 129.418 13.4C129.066 13.336 128.719 13.2507 128.378 13.144C128.047 13.0373 127.749 12.8987 127.482 12.728C127.215 12.5573 127.002 12.344 126.842 12.088C126.682 11.8213 126.602 11.5067 126.602 11.144C126.602 10.6853 126.719 10.28 126.954 9.928C127.199 9.56533 127.535 9.28267 127.962 9.08C128.399 8.87733 128.917 8.776 129.514 8.776C130.367 8.776 131.061 8.984 131.594 9.4C132.138 9.816 132.453 10.4187 132.538 11.208H131.21C131.167 10.8027 130.997 10.488 130.698 10.264C130.399 10.0293 129.999 9.912 129.498 9.912C128.997 9.912 128.613 10.0133 128.346 10.216C128.09 10.4187 127.962 10.6853 127.962 11.016C127.962 11.2293 128.031 11.416 128.17 11.576C128.319 11.736 128.538 11.8747 128.826 11.992C129.114 12.0987 129.461 12.1947 129.866 12.28C130.389 12.376 130.869 12.504 131.306 12.664C131.743 12.824 132.095 13.0587 132.362 13.368C132.639 13.6773 132.778 14.12 132.778 14.696C132.789 15.1973 132.666 15.6347 132.41 16.008C132.165 16.3813 131.813 16.6747 131.354 16.888C130.895 17.0907 130.351 17.192 129.722 17.192ZM134.713 17V5.48H136.057V10.328C136.335 9.83733 136.713 9.45867 137.193 9.192C137.673 8.91467 138.207 8.776 138.793 8.776C139.412 8.776 139.945 8.904 140.393 9.16C140.852 9.40533 141.204 9.784 141.449 10.296C141.705 10.808 141.833 11.4533 141.833 12.232V17H140.505V12.376C140.505 11.5653 140.335 10.9573 139.993 10.552C139.652 10.136 139.156 9.928 138.505 9.928C138.047 9.928 137.631 10.04 137.257 10.264C136.895 10.4773 136.601 10.7973 136.377 11.224C136.164 11.64 136.057 12.152 136.057 12.76V17H134.713ZM146.541 17.192C145.89 17.192 145.346 17.08 144.909 16.856C144.472 16.6213 144.146 16.3173 143.933 15.944C143.72 15.56 143.613 15.1493 143.613 14.712C143.613 14.168 143.752 13.7093 144.029 13.336C144.317 12.952 144.717 12.664 145.229 12.472C145.752 12.2693 146.36 12.168 147.053 12.168H149.197C149.197 11.6667 149.117 11.2507 148.957 10.92C148.808 10.5893 148.584 10.3387 148.285 10.168C147.986 9.99733 147.624 9.912 147.197 9.912C146.685 9.912 146.242 10.04 145.869 10.296C145.496 10.552 145.266 10.9307 145.181 11.432H143.805C143.869 10.856 144.061 10.376 144.381 9.992C144.712 9.59733 145.128 9.29867 145.629 9.096C146.13 8.88267 146.653 8.776 147.197 8.776C147.944 8.776 148.562 8.91467 149.053 9.192C149.544 9.45867 149.912 9.83733 150.157 10.328C150.413 10.808 150.541 11.3733 150.541 12.024V17H149.341L149.261 15.576C149.154 15.8 149.016 16.0133 148.845 16.216C148.685 16.408 148.493 16.5787 148.269 16.728C148.056 16.8667 147.805 16.9787 147.517 17.064C147.229 17.1493 146.904 17.192 146.541 17.192ZM146.749 16.056C147.122 16.056 147.458 15.9813 147.757 15.832C148.066 15.672 148.328 15.4587 148.541 15.192C148.754 14.9253 148.914 14.6267 149.021 14.296C149.138 13.9547 149.197 13.608 149.197 13.256V13.208H147.165C146.653 13.208 146.237 13.272 145.917 13.4C145.597 13.5173 145.368 13.688 145.229 13.912C145.09 14.1253 145.021 14.3707 145.021 14.648C145.021 14.936 145.085 15.1867 145.213 15.4C145.352 15.6027 145.549 15.7627 145.805 15.88C146.061 15.9973 146.376 16.056 146.749 16.056ZM152.604 17V5.48H153.948V17H152.604ZM156.167 17V5.48H157.511V17H156.167ZM164.075 17V5.8H165.419V15.928H170.635V17H164.075ZM175.041 17.192C174.39 17.192 173.846 17.08 173.409 16.856C172.972 16.6213 172.646 16.3173 172.433 15.944C172.22 15.56 172.113 15.1493 172.113 14.712C172.113 14.168 172.252 13.7093 172.529 13.336C172.817 12.952 173.217 12.664 173.729 12.472C174.252 12.2693 174.86 12.168 175.553 12.168H177.697C177.697 11.6667 177.617 11.2507 177.457 10.92C177.308 10.5893 177.084 10.3387 176.785 10.168C176.486 9.99733 176.124 9.912 175.697 9.912C175.185 9.912 174.742 10.04 174.369 10.296C173.996 10.552 173.766 10.9307 173.681 11.432H172.305C172.369 10.856 172.561 10.376 172.881 9.992C173.212 9.59733 173.628 9.29867 174.129 9.096C174.63 8.88267 175.153 8.776 175.697 8.776C176.444 8.776 177.062 8.91467 177.553 9.192C178.044 9.45867 178.412 9.83733 178.657 10.328C178.913 10.808 179.041 11.3733 179.041 12.024V17H177.841L177.761 15.576C177.654 15.8 177.516 16.0133 177.345 16.216C177.185 16.408 176.993 16.5787 176.769 16.728C176.556 16.8667 176.305 16.9787 176.017 17.064C175.729 17.1493 175.404 17.192 175.041 17.192ZM175.249 16.056C175.622 16.056 175.958 15.9813 176.257 15.832C176.566 15.672 176.828 15.4587 177.041 15.192C177.254 14.9253 177.414 14.6267 177.521 14.296C177.638 13.9547 177.697 13.608 177.697 13.256V13.208H175.665C175.153 13.208 174.737 13.272 174.417 13.4C174.097 13.5173 173.868 13.688 173.729 13.912C173.59 14.1253 173.521 14.3707 173.521 14.648C173.521 14.936 173.585 15.1867 173.713 15.4C173.852 15.6027 174.049 15.7627 174.305 15.88C174.561 15.9973 174.876 16.056 175.249 16.056ZM181.104 17V8.968H182.32L182.4 10.376C182.656 9.87467 183.019 9.48533 183.488 9.208C183.968 8.92 184.512 8.776 185.12 8.776C185.749 8.776 186.293 8.89867 186.752 9.144C187.211 9.38933 187.568 9.768 187.824 10.28C188.08 10.792 188.208 11.4373 188.208 12.216V17H186.864V12.36C186.864 11.5493 186.688 10.9413 186.336 10.536C185.984 10.1307 185.477 9.928 184.816 9.928C184.368 9.928 183.963 10.04 183.6 10.264C183.248 10.4773 182.965 10.792 182.752 11.208C182.549 11.624 182.448 12.1307 182.448 12.728V17H181.104ZM193.828 17.192C193.081 17.192 192.415 17.016 191.828 16.664C191.241 16.312 190.777 15.8213 190.436 15.192C190.105 14.5627 189.94 13.8267 189.94 12.984C189.94 12.1307 190.105 11.3947 190.436 10.776C190.767 10.1467 191.225 9.656 191.812 9.304C192.409 8.952 193.092 8.776 193.86 8.776C194.649 8.776 195.321 8.952 195.876 9.304C196.431 9.656 196.852 10.1147 197.14 10.68C197.439 11.2453 197.588 11.8693 197.588 12.552C197.588 12.6587 197.588 12.7707 197.588 12.888C197.588 13.0053 197.583 13.1387 197.572 13.288H190.948V12.248H196.26C196.228 11.512 195.983 10.9413 195.524 10.536C195.076 10.12 194.511 9.912 193.828 9.912C193.38 9.912 192.959 10.0187 192.564 10.232C192.169 10.4347 191.849 10.7333 191.604 11.128C191.369 11.5227 191.252 12.0187 191.252 12.616V13.064C191.252 13.7253 191.375 14.28 191.62 14.728C191.865 15.1653 192.18 15.496 192.564 15.72C192.959 15.944 193.38 16.056 193.828 16.056C194.393 16.056 194.857 15.9333 195.22 15.688C195.593 15.432 195.865 15.0853 196.036 14.648H197.364C197.225 15.1387 196.996 15.576 196.676 15.96C196.356 16.3333 195.956 16.632 195.476 16.856C195.007 17.08 194.457 17.192 193.828 17.192ZM203.716 17V5.8H205.284L209.252 13.624L213.22 5.8H214.804V17H213.46V8.2L209.764 15.432H208.756L205.06 8.232V17H203.716ZM219.744 17.192C219.093 17.192 218.549 17.08 218.112 16.856C217.675 16.6213 217.349 16.3173 217.136 15.944C216.923 15.56 216.816 15.1493 216.816 14.712C216.816 14.168 216.955 13.7093 217.232 13.336C217.52 12.952 217.92 12.664 218.432 12.472C218.955 12.2693 219.563 12.168 220.256 12.168H222.4C222.4 11.6667 222.32 11.2507 222.16 10.92C222.011 10.5893 221.787 10.3387 221.488 10.168C221.189 9.99733 220.827 9.912 220.4 9.912C219.888 9.912 219.445 10.04 219.072 10.296C218.699 10.552 218.469 10.9307 218.384 11.432H217.008C217.072 10.856 217.264 10.376 217.584 9.992C217.915 9.59733 218.331 9.29867 218.832 9.096C219.333 8.88267 219.856 8.776 220.4 8.776C221.147 8.776 221.765 8.91467 222.256 9.192C222.747 9.45867 223.115 9.83733 223.36 10.328C223.616 10.808 223.744 11.3733 223.744 12.024V17H222.544L222.464 15.576C222.357 15.8 222.219 16.0133 222.048 16.216C221.888 16.408 221.696 16.5787 221.472 16.728C221.259 16.8667 221.008 16.9787 220.72 17.064C220.432 17.1493 220.107 17.192 219.744 17.192ZM219.952 16.056C220.325 16.056 220.661 15.9813 220.96 15.832C221.269 15.672 221.531 15.4587 221.744 15.192C221.957 14.9253 222.117 14.6267 222.224 14.296C222.341 13.9547 222.4 13.608 222.4 13.256V13.208H220.368C219.856 13.208 219.44 13.272 219.12 13.4C218.8 13.5173 218.571 13.688 218.432 13.912C218.293 14.1253 218.224 14.3707 218.224 14.648C218.224 14.936 218.288 15.1867 218.416 15.4C218.555 15.6027 218.752 15.7627 219.008 15.88C219.264 15.9973 219.579 16.056 219.952 16.056ZM225.807 17V8.968H227.023L227.135 10.504C227.316 10.1413 227.546 9.832 227.823 9.576C228.111 9.32 228.452 9.12267 228.847 8.984C229.242 8.84533 229.69 8.776 230.191 8.776V10.184H229.727C229.386 10.184 229.06 10.232 228.751 10.328C228.442 10.4133 228.164 10.5573 227.919 10.76C227.684 10.952 227.498 11.224 227.359 11.576C227.22 11.928 227.151 12.36 227.151 12.872V17H225.807ZM234.738 17.192C234.087 17.192 233.511 17.0853 233.01 16.872C232.508 16.648 232.108 16.3333 231.81 15.928C231.522 15.5227 231.34 15.048 231.266 14.504H232.642C232.706 14.7813 232.823 15.0427 232.994 15.288C233.164 15.5227 233.394 15.7093 233.682 15.848C233.98 15.9867 234.338 16.056 234.754 16.056C235.138 16.056 235.452 16.0027 235.698 15.896C235.943 15.7787 236.124 15.624 236.242 15.432C236.359 15.24 236.418 15.032 236.418 14.808C236.418 14.488 236.338 14.2427 236.178 14.072C236.028 13.9013 235.804 13.768 235.506 13.672C235.207 13.5653 234.85 13.4747 234.434 13.4C234.082 13.336 233.735 13.2507 233.394 13.144C233.063 13.0373 232.764 12.8987 232.498 12.728C232.231 12.5573 232.018 12.344 231.858 12.088C231.698 11.8213 231.618 11.5067 231.618 11.144C231.618 10.6853 231.735 10.28 231.97 9.928C232.215 9.56533 232.551 9.28267 232.978 9.08C233.415 8.87733 233.932 8.776 234.53 8.776C235.383 8.776 236.076 8.984 236.61 9.4C237.154 9.816 237.468 10.4187 237.554 11.208H236.226C236.183 10.8027 236.012 10.488 235.714 10.264C235.415 10.0293 235.015 9.912 234.514 9.912C234.012 9.912 233.628 10.0133 233.362 10.216C233.106 10.4187 232.978 10.6853 232.978 11.016C232.978 11.2293 233.047 11.416 233.186 11.576C233.335 11.736 233.554 11.8747 233.842 11.992C234.13 12.0987 234.476 12.1947 234.882 12.28C235.404 12.376 235.884 12.504 236.322 12.664C236.759 12.824 237.111 13.0587 237.378 13.368C237.655 13.6773 237.794 14.12 237.794 14.696C237.804 15.1973 237.682 15.6347 237.426 16.008C237.18 16.3813 236.828 16.6747 236.37 16.888C235.911 17.0907 235.367 17.192 234.738 17.192ZM239.729 17V5.48H241.073V10.328C241.35 9.83733 241.729 9.45867 242.209 9.192C242.689 8.91467 243.222 8.776 243.809 8.776C244.428 8.776 244.961 8.904 245.409 9.16C245.868 9.40533 246.22 9.784 246.465 10.296C246.721 10.808 246.849 11.4533 246.849 12.232V17H245.521V12.376C245.521 11.5653 245.35 10.9573 245.009 10.552C244.668 10.136 244.172 9.928 243.521 9.928C243.062 9.928 242.646 10.04 242.273 10.264C241.91 10.4773 241.617 10.7973 241.393 11.224C241.18 11.64 241.073 12.152 241.073 12.76V17H239.729ZM251.557 17.192C250.906 17.192 250.362 17.08 249.924 16.856C249.487 16.6213 249.162 16.3173 248.949 15.944C248.735 15.56 248.629 15.1493 248.629 14.712C248.629 14.168 248.767 13.7093 249.045 13.336C249.333 12.952 249.733 12.664 250.245 12.472C250.767 12.2693 251.375 12.168 252.069 12.168H254.213C254.213 11.6667 254.133 11.2507 253.973 10.92C253.823 10.5893 253.599 10.3387 253.301 10.168C253.002 9.99733 252.639 9.912 252.213 9.912C251.701 9.912 251.258 10.04 250.885 10.296C250.511 10.552 250.282 10.9307 250.197 11.432H248.821C248.885 10.856 249.077 10.376 249.397 9.992C249.727 9.59733 250.143 9.29867 250.645 9.096C251.146 8.88267 251.669 8.776 252.213 8.776C252.959 8.776 253.578 8.91467 254.069 9.192C254.559 9.45867 254.927 9.83733 255.173 10.328C255.429 10.808 255.557 11.3733 255.557 12.024V17H254.357L254.277 15.576C254.17 15.8 254.031 16.0133 253.861 16.216C253.701 16.408 253.509 16.5787 253.285 16.728C253.071 16.8667 252.821 16.9787 252.533 17.064C252.245 17.1493 251.919 17.192 251.557 17.192ZM251.765 16.056C252.138 16.056 252.474 15.9813 252.773 15.832C253.082 15.672 253.343 15.4587 253.557 15.192C253.77 14.9253 253.93 14.6267 254.037 14.296C254.154 13.9547 254.213 13.608 254.213 13.256V13.208H252.181C251.669 13.208 251.253 13.272 250.933 13.4C250.613 13.5173 250.383 13.688 250.245 13.912C250.106 14.1253 250.037 14.3707 250.037 14.648C250.037 14.936 250.101 15.1867 250.229 15.4C250.367 15.6027 250.565 15.7627 250.821 15.88C251.077 15.9973 251.391 16.056 251.765 16.056ZM257.62 17V5.48H258.964V17H257.62ZM261.182 17V5.48H262.526V17H261.182ZM267.913 17C267.433 17 267.017 16.9253 266.665 16.776C266.313 16.6267 266.041 16.376 265.849 16.024C265.667 15.6613 265.577 15.176 265.577 14.568V10.104H264.185V8.968H265.577L265.753 7.032H266.921V8.968H269.273V10.104H266.921V14.568C266.921 15.0693 267.022 15.4107 267.225 15.592C267.427 15.7627 267.785 15.848 268.297 15.848H269.161V17H267.913ZM274.392 17.192C273.645 17.192 272.973 17.0213 272.376 16.68C271.779 16.328 271.304 15.8373 270.952 15.208C270.611 14.5787 270.44 13.8373 270.44 12.984C270.44 12.1307 270.616 11.3893 270.968 10.76C271.32 10.1307 271.795 9.64533 272.392 9.304C273 8.952 273.677 8.776 274.424 8.776C275.181 8.776 275.859 8.952 276.456 9.304C277.053 9.64533 277.523 10.1307 277.864 10.76C278.205 11.3893 278.376 12.1307 278.376 12.984C278.376 13.8373 278.2 14.5787 277.848 15.208C277.507 15.8373 277.032 16.328 276.424 16.68C275.827 17.0213 275.149 17.192 274.392 17.192ZM274.392 16.04C274.861 16.04 275.293 15.928 275.688 15.704C276.083 15.4693 276.397 15.128 276.632 14.68C276.877 14.2213 277 13.656 277 12.984C277 12.3013 276.883 11.736 276.648 11.288C276.413 10.84 276.099 10.504 275.704 10.28C275.309 10.0453 274.883 9.928 274.424 9.928C273.976 9.928 273.549 10.0453 273.144 10.28C272.749 10.504 272.429 10.84 272.184 11.288C271.939 11.736 271.816 12.3013 271.816 12.984C271.816 13.656 271.939 14.2213 272.184 14.68C272.429 15.128 272.744 15.4693 273.128 15.704C273.523 15.928 273.944 16.04 274.392 16.04ZM281.595 17L279.243 8.968H280.587L282.427 15.768H282.155L284.171 8.968H285.691L287.723 15.752L287.451 15.768L289.291 8.968H290.651L288.299 17H286.923L284.811 9.896H285.083L282.971 17H281.595ZM292.135 17V8.968H293.351L293.431 10.376C293.687 9.87467 294.05 9.48533 294.519 9.208C294.999 8.92 295.543 8.776 296.151 8.776C296.781 8.776 297.325 8.89867 297.783 9.144C298.242 9.38933 298.599 9.768 298.855 10.28C299.111 10.792 299.239 11.4373 299.239 12.216V17H297.895V12.36C297.895 11.5493 297.719 10.9413 297.367 10.536C297.015 10.1307 296.509 9.928 295.847 9.928C295.399 9.928 294.994 10.04 294.631 10.264C294.279 10.4773 293.997 10.792 293.783 11.208C293.581 11.624 293.479 12.1307 293.479 12.728V17H292.135ZM300.267 18.968L301.195 15.432H302.587L301.195 18.968H300.267ZM45.2 41V29.8H46.544V41H45.2ZM48.2144 41L52.3424 29.8H53.7664L57.8784 41H56.4544L53.0464 31.48L49.6224 41H48.2144ZM50.1024 38.12L50.4864 37.032H55.5584L55.9424 38.12H50.1024ZM67.5854 41.192C66.828 41.192 66.1667 41.0533 65.6014 40.776C65.036 40.4987 64.588 40.12 64.2574 39.64C63.9374 39.16 63.7347 38.616 63.6494 38.008H64.9614C65.0894 38.616 65.3827 39.1067 65.8414 39.48C66.3 39.8533 66.8867 40.04 67.6014 40.04C68.1347 40.04 68.588 39.9173 68.9614 39.672C69.3454 39.416 69.6387 39.08 69.8414 38.664C70.0547 38.2373 70.1614 37.7627 70.1614 37.24C70.1614 36.6853 70.0547 36.2053 69.8414 35.8C69.6387 35.384 69.3454 35.0587 68.9614 34.824C68.588 34.5893 68.156 34.472 67.6654 34.472C67.0467 34.472 66.5187 34.6053 66.0814 34.872C65.6547 35.1387 65.34 35.4853 65.1374 35.912H63.8414L64.7854 29.8H70.6894V30.968H65.8254L65.1854 34.392C65.452 34.0827 65.8094 33.832 66.2574 33.64C66.7054 33.4373 67.2227 33.336 67.8094 33.336C68.3534 33.336 68.8494 33.4373 69.2974 33.64C69.7454 33.832 70.1294 34.104 70.4494 34.456C70.78 34.808 71.0307 35.2187 71.2014 35.688C71.372 36.1573 71.4574 36.6693 71.4574 37.224C71.4574 37.7573 71.372 38.264 71.2014 38.744C71.0307 39.224 70.7747 39.6507 70.4334 40.024C70.1027 40.3867 69.6974 40.6747 69.2174 40.888C68.748 41.0907 68.204 41.192 67.5854 41.192ZM77.8946 41.192C76.9133 41.192 76.0653 40.952 75.3506 40.472C74.6466 39.9813 74.1026 39.304 73.7186 38.44C73.3346 37.5653 73.1426 36.552 73.1426 35.4C73.1426 34.248 73.3346 33.24 73.7186 32.376C74.1026 31.5013 74.6466 30.824 75.3506 30.344C76.0546 29.8533 76.9026 29.608 77.8946 29.608C78.876 29.608 79.7133 29.8533 80.4066 30.344C81.1106 30.824 81.6493 31.5013 82.0226 32.376C82.4066 33.24 82.5986 34.248 82.5986 35.4C82.5986 36.552 82.4066 37.5653 82.0226 38.44C81.6493 39.304 81.1106 39.9813 80.4066 40.472C79.7133 40.952 78.876 41.192 77.8946 41.192ZM77.8786 40.008C78.5293 40.008 79.1053 39.8267 79.6066 39.464C80.108 39.0907 80.5026 38.5627 80.7906 37.88C81.0786 37.1867 81.2226 36.36 81.2226 35.4C81.2226 34.44 81.0786 33.6187 80.7906 32.936C80.5026 32.2427 80.108 31.7147 79.6066 31.352C79.1053 30.9893 78.5293 30.808 77.8786 30.808C77.2386 30.808 76.6626 30.9893 76.1506 31.352C75.6493 31.7147 75.2493 32.2427 74.9506 32.936C74.6626 33.6187 74.5186 34.44 74.5186 35.4C74.5186 36.36 74.6626 37.1867 74.9506 37.88C75.2493 38.5627 75.6493 39.0907 76.1506 39.464C76.6626 39.8267 77.2386 40.008 77.8786 40.008ZM85.7594 41V31.304L83.8554 31.768V30.824L86.2074 29.8H87.1194V41H85.7594ZM93.2885 41.192C92.5312 41.192 91.8698 41.0533 91.3045 40.776C90.7392 40.4987 90.2912 40.12 89.9605 39.64C89.6405 39.16 89.4378 38.616 89.3525 38.008H90.6645C90.7925 38.616 91.0858 39.1067 91.5445 39.48C92.0032 39.8533 92.5898 40.04 93.3045 40.04C93.8378 40.04 94.2912 39.9173 94.6645 39.672C95.0485 39.416 95.3418 39.08 95.5445 38.664C95.7578 38.2373 95.8645 37.7627 95.8645 37.24C95.8645 36.6853 95.7578 36.2053 95.5445 35.8C95.3418 35.384 95.0485 35.0587 94.6645 34.824C94.2912 34.5893 93.8592 34.472 93.3685 34.472C92.7498 34.472 92.2218 34.6053 91.7845 34.872C91.3578 35.1387 91.0432 35.4853 90.8405 35.912H89.5445L90.4885 29.8H96.3925V30.968H91.5285L90.8885 34.392C91.1552 34.0827 91.5125 33.832 91.9605 33.64C92.4085 33.4373 92.9258 33.336 93.5125 33.336C94.0565 33.336 94.5525 33.4373 95.0005 33.64C95.4485 33.832 95.8325 34.104 96.1525 34.456C96.4832 34.808 96.7338 35.2187 96.9045 35.688C97.0752 36.1573 97.1605 36.6693 97.1605 37.224C97.1605 37.7573 97.0752 38.264 96.9045 38.744C96.7338 39.224 96.4778 39.6507 96.1365 40.024C95.8058 40.3867 95.4005 40.6747 94.9205 40.888C94.4512 41.0907 93.9072 41.192 93.2885 41.192ZM102.958 41.192C102.232 41.192 101.576 41.0587 100.99 40.792C100.414 40.5147 99.9551 40.136 99.6138 39.656C99.2831 39.1653 99.1178 38.6 99.1178 37.96C99.1178 37.5013 99.2084 37.0747 99.3898 36.68C99.5711 36.2853 99.8218 35.944 100.142 35.656C100.472 35.3573 100.851 35.1493 101.278 35.032C100.68 34.8187 100.216 34.488 99.8858 34.04C99.5658 33.592 99.4058 33.1067 99.4058 32.584C99.4058 32.0293 99.5444 31.528 99.8218 31.08C100.11 30.632 100.52 30.2747 101.054 30.008C101.587 29.7413 102.222 29.608 102.958 29.608C103.704 29.608 104.339 29.7413 104.862 30.008C105.395 30.2747 105.806 30.632 106.094 31.08C106.382 31.528 106.526 32.0293 106.526 32.584C106.526 33.1067 106.36 33.592 106.03 34.04C105.71 34.488 105.246 34.8187 104.638 35.032C105.086 35.1493 105.47 35.3573 105.79 35.656C106.11 35.944 106.36 36.2853 106.542 36.68C106.723 37.0747 106.814 37.5013 106.814 37.96C106.814 38.6 106.643 39.1653 106.302 39.656C105.96 40.136 105.502 40.5147 104.926 40.792C104.35 41.0587 103.694 41.192 102.958 41.192ZM102.958 40.008C103.8 40.008 104.43 39.816 104.846 39.432C105.262 39.0373 105.47 38.52 105.47 37.88C105.47 37.1547 105.24 36.6053 104.782 36.232C104.334 35.8587 103.726 35.672 102.958 35.672C102.2 35.672 101.592 35.8587 101.134 36.232C100.686 36.6053 100.462 37.1547 100.462 37.88C100.462 38.52 100.67 39.0373 101.086 39.432C101.502 39.816 102.126 40.008 102.958 40.008ZM102.958 34.552C103.64 34.552 104.179 34.376 104.574 34.024C104.968 33.672 105.166 33.2187 105.166 32.664C105.166 32.0347 104.968 31.56 104.574 31.24C104.19 30.92 103.651 30.76 102.958 30.76C102.286 30.76 101.752 30.92 101.358 31.24C100.974 31.56 100.782 32.0347 100.782 32.664C100.782 33.2187 100.974 33.672 101.358 34.024C101.752 34.376 102.286 34.552 102.958 34.552ZM107.908 42.968L108.836 39.432H110.228L108.836 42.968H107.908ZM116.184 41V29.8H117.528V39.928H122.744V41H116.184ZM127.783 41.192C127.036 41.192 126.364 41.0213 125.767 40.68C125.169 40.328 124.695 39.8373 124.343 39.208C124.001 38.5787 123.831 37.8373 123.831 36.984C123.831 36.1307 124.007 35.3893 124.359 34.76C124.711 34.1307 125.185 33.6453 125.783 33.304C126.391 32.952 127.068 32.776 127.815 32.776C128.572 32.776 129.249 32.952 129.847 33.304C130.444 33.6453 130.913 34.1307 131.255 34.76C131.596 35.3893 131.767 36.1307 131.767 36.984C131.767 37.8373 131.591 38.5787 131.239 39.208C130.897 39.8373 130.423 40.328 129.815 40.68C129.217 41.0213 128.54 41.192 127.783 41.192ZM127.783 40.04C128.252 40.04 128.684 39.928 129.079 39.704C129.473 39.4693 129.788 39.128 130.023 38.68C130.268 38.2213 130.391 37.656 130.391 36.984C130.391 36.3013 130.273 35.736 130.039 35.288C129.804 34.84 129.489 34.504 129.095 34.28C128.7 34.0453 128.273 33.928 127.815 33.928C127.367 33.928 126.94 34.0453 126.535 34.28C126.14 34.504 125.82 34.84 125.575 35.288C125.329 35.736 125.207 36.3013 125.207 36.984C125.207 37.656 125.329 38.2213 125.575 38.68C125.82 39.128 126.135 39.4693 126.519 39.704C126.913 39.928 127.335 40.04 127.783 40.04ZM136.691 41.192C136.04 41.192 135.464 41.0853 134.963 40.872C134.462 40.648 134.062 40.3333 133.763 39.928C133.475 39.5227 133.294 39.048 133.219 38.504H134.595C134.659 38.7813 134.776 39.0427 134.947 39.288C135.118 39.5227 135.347 39.7093 135.635 39.848C135.934 39.9867 136.291 40.056 136.707 40.056C137.091 40.056 137.406 40.0027 137.651 39.896C137.896 39.7787 138.078 39.624 138.195 39.432C138.312 39.24 138.371 39.032 138.371 38.808C138.371 38.488 138.291 38.2427 138.131 38.072C137.982 37.9013 137.758 37.768 137.459 37.672C137.16 37.5653 136.803 37.4747 136.387 37.4C136.035 37.336 135.688 37.2507 135.347 37.144C135.016 37.0373 134.718 36.8987 134.451 36.728C134.184 36.5573 133.971 36.344 133.811 36.088C133.651 35.8213 133.571 35.5067 133.571 35.144C133.571 34.6853 133.688 34.28 133.923 33.928C134.168 33.5653 134.504 33.2827 134.931 33.08C135.368 32.8773 135.886 32.776 136.483 32.776C137.336 32.776 138.03 32.984 138.563 33.4C139.107 33.816 139.422 34.4187 139.507 35.208H138.179C138.136 34.8027 137.966 34.488 137.667 34.264C137.368 34.0293 136.968 33.912 136.467 33.912C135.966 33.912 135.582 34.0133 135.315 34.216C135.059 34.4187 134.931 34.6853 134.931 35.016C134.931 35.2293 135 35.416 135.139 35.576C135.288 35.736 135.507 35.8747 135.795 35.992C136.083 36.0987 136.43 36.1947 136.835 36.28C137.358 36.376 137.838 36.504 138.275 36.664C138.712 36.824 139.064 37.0587 139.331 37.368C139.608 37.6773 139.747 38.12 139.747 38.696C139.758 39.1973 139.635 39.6347 139.379 40.008C139.134 40.3813 138.782 40.6747 138.323 40.888C137.864 41.0907 137.32 41.192 136.691 41.192ZM145.308 41L149.436 29.8H150.86L154.972 41H153.548L150.14 31.48L146.716 41H145.308ZM147.196 38.12L147.58 37.032H152.652L153.036 38.12H147.196ZM156.557 41V32.968H157.773L157.853 34.376C158.109 33.8747 158.472 33.4853 158.941 33.208C159.421 32.92 159.965 32.776 160.573 32.776C161.202 32.776 161.746 32.8987 162.205 33.144C162.664 33.3893 163.021 33.768 163.277 34.28C163.533 34.792 163.661 35.4373 163.661 36.216V41H162.317V36.36C162.317 35.5493 162.141 34.9413 161.789 34.536C161.437 34.1307 160.93 33.928 160.269 33.928C159.821 33.928 159.416 34.04 159.053 34.264C158.701 34.4773 158.418 34.792 158.205 35.208C158.002 35.624 157.901 36.1307 157.901 36.728V41H156.557ZM168.913 44.712C168.188 44.712 167.548 44.616 166.993 44.424C166.438 44.2427 166.006 43.96 165.697 43.576C165.388 43.192 165.233 42.7173 165.233 42.152C165.233 41.9067 165.281 41.6453 165.377 41.368C165.484 41.1013 165.66 40.8347 165.905 40.568C166.161 40.3013 166.518 40.0613 166.977 39.848L167.889 40.392C167.334 40.6267 166.972 40.8933 166.801 41.192C166.63 41.4907 166.545 41.768 166.545 42.024C166.545 42.376 166.646 42.6693 166.849 42.904C167.052 43.1387 167.329 43.3147 167.681 43.432C168.044 43.5493 168.454 43.608 168.913 43.608C169.372 43.608 169.766 43.5387 170.097 43.4C170.428 43.272 170.684 43.0907 170.865 42.856C171.046 42.632 171.137 42.36 171.137 42.04C171.137 41.6773 170.998 41.368 170.721 41.112C170.444 40.8667 169.921 40.7227 169.153 40.68C168.513 40.6373 167.98 40.5787 167.553 40.504C167.137 40.4293 166.79 40.344 166.513 40.248C166.236 40.1413 166.001 40.024 165.809 39.896C165.628 39.768 165.462 39.6347 165.313 39.496V39.128L166.865 37.576L168.033 37.992L166.433 39.448L166.641 38.888C166.758 38.9733 166.87 39.0533 166.977 39.128C167.084 39.192 167.228 39.2507 167.409 39.304C167.59 39.3573 167.841 39.4107 168.161 39.464C168.481 39.5067 168.913 39.5493 169.457 39.592C170.182 39.6453 170.764 39.7733 171.201 39.976C171.649 40.1787 171.969 40.4507 172.161 40.792C172.364 41.1333 172.465 41.5333 172.465 41.992C172.465 42.4507 172.337 42.8827 172.081 43.288C171.836 43.704 171.452 44.0453 170.929 44.312C170.406 44.5787 169.734 44.712 168.913 44.712ZM168.897 38.472C168.225 38.472 167.654 38.3493 167.185 38.104C166.716 37.848 166.358 37.5067 166.113 37.08C165.868 36.6427 165.745 36.1573 165.745 35.624C165.745 35.0907 165.868 34.6107 166.113 34.184C166.358 33.7573 166.716 33.416 167.185 33.16C167.654 32.904 168.225 32.776 168.897 32.776C169.58 32.776 170.156 32.904 170.625 33.16C171.094 33.416 171.452 33.7573 171.697 34.184C171.942 34.6107 172.065 35.0907 172.065 35.624C172.065 36.1573 171.942 36.6427 171.697 37.08C171.452 37.5067 171.094 37.848 170.625 38.104C170.156 38.3493 169.58 38.472 168.897 38.472ZM168.897 37.368C169.473 37.368 169.926 37.224 170.257 36.936C170.598 36.6373 170.769 36.2 170.769 35.624C170.769 35.0693 170.598 34.6427 170.257 34.344C169.926 34.0453 169.473 33.896 168.897 33.896C168.332 33.896 167.878 34.0453 167.537 34.344C167.196 34.6427 167.025 35.0693 167.025 35.624C167.025 36.2 167.196 36.6373 167.537 36.936C167.878 37.224 168.332 37.368 168.897 37.368ZM170.209 34.104L169.809 32.968H173.105V33.976L170.209 34.104ZM177.875 41.192C177.128 41.192 176.461 41.016 175.875 40.664C175.288 40.312 174.824 39.8213 174.483 39.192C174.152 38.5627 173.987 37.8267 173.987 36.984C173.987 36.1307 174.152 35.3947 174.483 34.776C174.813 34.1467 175.272 33.656 175.859 33.304C176.456 32.952 177.139 32.776 177.907 32.776C178.696 32.776 179.368 32.952 179.923 33.304C180.477 33.656 180.899 34.1147 181.187 34.68C181.485 35.2453 181.635 35.8693 181.635 36.552C181.635 36.6587 181.635 36.7707 181.635 36.888C181.635 37.0053 181.629 37.1387 181.619 37.288H174.995V36.248H180.307C180.275 35.512 180.029 34.9413 179.571 34.536C179.123 34.12 178.557 33.912 177.875 33.912C177.427 33.912 177.005 34.0187 176.611 34.232C176.216 34.4347 175.896 34.7333 175.651 35.128C175.416 35.5227 175.299 36.0187 175.299 36.616V37.064C175.299 37.7253 175.421 38.28 175.667 38.728C175.912 39.1653 176.227 39.496 176.611 39.72C177.005 39.944 177.427 40.056 177.875 40.056C178.44 40.056 178.904 39.9333 179.267 39.688C179.64 39.432 179.912 39.0853 180.083 38.648H181.411C181.272 39.1387 181.043 39.576 180.723 39.96C180.403 40.3333 180.003 40.632 179.523 40.856C179.053 41.08 178.504 41.192 177.875 41.192ZM183.417 41V29.48H184.761V41H183.417ZM190.531 41.192C189.784 41.192 189.118 41.016 188.531 40.664C187.944 40.312 187.48 39.8213 187.139 39.192C186.808 38.5627 186.643 37.8267 186.643 36.984C186.643 36.1307 186.808 35.3947 187.139 34.776C187.47 34.1467 187.928 33.656 188.515 33.304C189.112 32.952 189.795 32.776 190.563 32.776C191.352 32.776 192.024 32.952 192.579 33.304C193.134 33.656 193.555 34.1147 193.843 34.68C194.142 35.2453 194.291 35.8693 194.291 36.552C194.291 36.6587 194.291 36.7707 194.291 36.888C194.291 37.0053 194.286 37.1387 194.275 37.288H187.651V36.248H192.963C192.931 35.512 192.686 34.9413 192.227 34.536C191.779 34.12 191.214 33.912 190.531 33.912C190.083 33.912 189.662 34.0187 189.267 34.232C188.872 34.4347 188.552 34.7333 188.307 35.128C188.072 35.5227 187.955 36.0187 187.955 36.616V37.064C187.955 37.7253 188.078 38.28 188.323 38.728C188.568 39.1653 188.883 39.496 189.267 39.72C189.662 39.944 190.083 40.056 190.531 40.056C191.096 40.056 191.56 39.9333 191.923 39.688C192.296 39.432 192.568 39.0853 192.739 38.648H194.067C193.928 39.1387 193.699 39.576 193.379 39.96C193.059 40.3333 192.659 40.632 192.179 40.856C191.71 41.08 191.16 41.192 190.531 41.192ZM199.113 41.192C198.462 41.192 197.886 41.0853 197.385 40.872C196.883 40.648 196.483 40.3333 196.185 39.928C195.897 39.5227 195.715 39.048 195.641 38.504H197.017C197.081 38.7813 197.198 39.0427 197.369 39.288C197.539 39.5227 197.769 39.7093 198.057 39.848C198.355 39.9867 198.713 40.056 199.129 40.056C199.513 40.056 199.827 40.0027 200.073 39.896C200.318 39.7787 200.499 39.624 200.617 39.432C200.734 39.24 200.793 39.032 200.793 38.808C200.793 38.488 200.713 38.2427 200.553 38.072C200.403 37.9013 200.179 37.768 199.881 37.672C199.582 37.5653 199.225 37.4747 198.809 37.4C198.457 37.336 198.11 37.2507 197.769 37.144C197.438 37.0373 197.139 36.8987 196.873 36.728C196.606 36.5573 196.393 36.344 196.233 36.088C196.073 35.8213 195.993 35.5067 195.993 35.144C195.993 34.6853 196.11 34.28 196.345 33.928C196.59 33.5653 196.926 33.2827 197.353 33.08C197.79 32.8773 198.307 32.776 198.905 32.776C199.758 32.776 200.451 32.984 200.985 33.4C201.529 33.816 201.843 34.4187 201.929 35.208H200.601C200.558 34.8027 200.387 34.488 200.089 34.264C199.79 34.0293 199.39 33.912 198.889 33.912C198.387 33.912 198.003 34.0133 197.737 34.216C197.481 34.4187 197.353 34.6853 197.353 35.016C197.353 35.2293 197.422 35.416 197.561 35.576C197.71 35.736 197.929 35.8747 198.217 35.992C198.505 36.0987 198.851 36.1947 199.257 36.28C199.779 36.376 200.259 36.504 200.697 36.664C201.134 36.824 201.486 37.0587 201.753 37.368C202.03 37.6773 202.169 38.12 202.169 38.696C202.179 39.1973 202.057 39.6347 201.801 40.008C201.555 40.3813 201.203 40.6747 200.745 40.888C200.286 41.0907 199.742 41.192 199.113 41.192Z" fill="#F9F9F7"/>
</svg>
