<svg width="18" height="19" viewBox="0 0 18 19" fill="none" xmlns="http://www.w3.org/2000/svg">
<g id="Icon/Outline/phone">
<path id="Icon" d="M2.25 4.33554C2.25 3.50711 2.92157 2.83554 3.75 2.83554H6.20943C6.53225 2.83554 6.81886 3.04211 6.92094 3.34837L8.0443 6.71845C8.16233 7.07253 8.00203 7.45952 7.6682 7.62644L5.97525 8.47291C6.80194 10.3065 8.27909 11.7836 10.1126 12.6103L10.9591 10.9173C11.126 10.5835 11.513 10.4232 11.8671 10.5412L15.2372 11.6646C15.5434 11.7667 15.75 12.0533 15.75 12.3761V14.8355C15.75 15.664 15.0784 16.3355 14.25 16.3355H13.5C7.2868 16.3355 2.25 11.2987 2.25 5.08554V4.33554Z" stroke="#F9F9F7" stroke-width="1.5" stroke-linecap="round" stroke-linejoin="round"/>
</g>
</svg>
