<svg width="57" height="55" viewBox="0 0 57 55" fill="none" xmlns="http://www.w3.org/2000/svg">
<g clip-path="url(#clip0_2517_371)">
<path d="M48.1696 0.80383C47.8611 0.625798 47.4932 0.575068 47.1467 0.662739C46.8001 0.750411 46.503 0.969345 46.3204 1.27163L36.649 17.3631C36.5994 17.4465 36.5594 17.5351 36.5296 17.6272C35.4475 18.0212 34.4375 18.5848 33.5389 19.2959C30.6084 14.4064 25.2392 11.3276 19.3733 11.3276C10.3223 11.3276 2.95979 18.5483 2.93456 27.4317H0.801025L0.991795 28.9239C2.10195 37.597 7.5481 45.1725 15.3789 49.1615V54.2826H35.5844C38.1456 54.2826 40.2293 52.2343 40.2293 49.7182V49.1621C48.0626 45.1713 53.5063 37.5958 54.6189 28.9239L54.8096 27.4305H50.9567C50.9389 22.8963 47.9783 19.0415 43.8601 17.5861L55.9266 6.18174C56.4632 5.67465 56.4804 4.83454 55.9623 4.30751C55.8395 4.18203 55.6927 4.08154 55.5304 4.01178C55.3681 3.94202 55.1933 3.90435 55.0162 3.90092C54.839 3.8975 54.6629 3.92839 54.4979 3.99183C54.3329 4.05526 54.1823 4.15001 54.0546 4.27064L40.6133 16.9762C40.4927 16.9714 40.3727 16.9581 40.2503 16.9581C40.1727 16.9581 40.0983 16.969 40.0219 16.9702L48.6459 2.62004C48.7361 2.47007 48.7953 2.30413 48.8202 2.13169C48.845 1.95925 48.8351 1.78369 48.7908 1.61504C48.7466 1.44638 48.669 1.28794 48.5624 1.14875C48.4558 1.00956 48.3223 0.892356 48.1696 0.80383ZM19.3727 13.9803C24.5401 13.9803 29.2503 16.8372 31.593 21.3134C30.7389 22.4671 30.1333 23.7798 29.8133 25.1712C28.7395 20.4763 24.4699 16.9569 19.3727 16.9569C13.4853 16.9569 8.69579 21.6519 8.67056 27.4311H5.63549C5.6601 20.0109 11.8115 13.9803 19.3727 13.9803ZM19.3727 22.5935C16.6466 22.5935 14.4281 24.7603 14.4029 27.4311H11.3721C11.3973 23.1145 14.9746 19.6102 19.3727 19.6102C23.7721 19.6102 27.353 23.1145 27.3758 27.4311H24.3413C24.3173 24.7603 22.0989 22.5935 19.3727 22.5935ZM21.6386 27.4317H17.1069C17.1189 26.8487 17.363 26.2934 17.7867 25.885C18.2104 25.4765 18.7802 25.2472 19.3739 25.2462C19.9674 25.2473 20.5368 25.4768 20.9601 25.8853C21.3834 26.2938 21.627 26.8489 21.6386 27.4317ZM51.6976 30.0844C50.1967 37.7928 44.8743 44.3644 37.4976 47.5121H33.1746V50.1654H37.4687C37.3676 50.5817 37.1269 50.9525 36.7852 51.2182C36.4435 51.4838 36.0208 51.6288 35.585 51.6299H18.0804V50.1654H23.1444V47.5121H18.113C10.7364 44.3662 5.41333 37.7928 3.91118 30.0844H51.6976ZM37.985 27.4317C37.9969 26.8489 38.2407 26.2939 38.664 25.8854C39.0874 25.4769 39.6568 25.2475 40.2503 25.2462C40.8443 25.2467 41.4144 25.4758 41.8385 25.8844C42.2625 26.2929 42.5066 26.8484 42.5186 27.4317H37.985ZM40.2503 19.6108C44.6515 19.6108 48.2336 23.1151 48.257 27.4317H45.2207C45.1961 24.7609 42.977 22.5941 40.2503 22.5941C37.5241 22.5941 35.3075 24.7609 35.2829 27.4317H32.2496C32.2743 23.1151 35.8515 19.6108 40.2503 19.6108Z" fill="#AD343E"/>
<path d="M39.6741 42.9139C39.8901 42.9139 40.1086 42.8637 40.3098 42.7568C41.9591 41.8897 43.4065 40.6947 44.5598 39.248C45.7131 37.8012 46.5469 36.1345 47.0082 34.3539C47.0524 34.1848 47.0622 34.0088 47.037 33.8361C47.0118 33.6633 46.9522 33.4971 46.8614 33.347C46.7707 33.1969 46.6507 33.0659 46.5083 32.9615C46.3659 32.8571 46.2039 32.7813 46.0316 32.7385C45.8593 32.6957 45.6801 32.6867 45.5043 32.7121C45.3285 32.7374 45.1595 32.7967 45.007 32.8863C44.8545 32.976 44.7215 33.0943 44.6157 33.2346C44.5099 33.3748 44.4334 33.5342 44.3904 33.7035C44.0221 35.1266 43.356 36.4588 42.4345 37.6151C41.5131 38.7714 40.3565 39.7265 39.0384 40.4196C38.7726 40.5585 38.5618 40.7808 38.4395 41.051C38.3172 41.3213 38.2905 41.6239 38.3636 41.9108C38.4367 42.1976 38.6054 42.4522 38.8429 42.634C39.0804 42.8158 39.373 42.9143 39.6741 42.9139Z" fill="#474747"/>
<path d="M36.4059 45.0063C37.2903 45.0063 38.0072 44.3022 38.0072 43.4337C38.0072 42.5651 37.2903 41.861 36.4059 41.861C35.5216 41.861 34.8047 42.5651 34.8047 43.4337C34.8047 44.3022 35.5216 45.0063 36.4059 45.0063Z" fill="#474747"/>
</g>
<defs>
<clipPath id="clip0_2517_371">
<rect width="56" height="55" fill="white" transform="translate(0.5)"/>
</clipPath>
</defs>
</svg>
