<svg width="11" height="10" viewBox="0 0 11 10" fill="none" xmlns="http://www.w3.org/2000/svg">
<path d="M10.9169 1.66135C10.5102 1.84207 10.081 1.95502 9.62923 2.02279C10.081 1.75171 10.4425 1.3225 10.6006 0.802935C10.1714 1.05142 9.697 1.23214 9.17743 1.34509C8.77082 0.915884 8.18348 0.644806 7.55096 0.644806C6.33111 0.644806 5.33716 1.63876 5.33716 2.85861C5.33716 3.03933 5.35975 3.19746 5.40493 3.35559C3.57515 3.26523 1.9261 2.38422 0.819195 1.02883C0.638476 1.36768 0.525527 1.72912 0.525527 2.13573C0.525527 2.90379 0.909554 3.58148 1.51948 3.9881C1.15804 3.96551 0.819195 3.87515 0.502937 3.71702V3.73961C0.502937 4.82392 1.27099 5.72752 2.28753 5.93083C2.10682 5.97601 1.90351 5.9986 1.7002 5.9986C1.56466 5.9986 1.40653 5.97601 1.27099 5.95342C1.56466 6.83442 2.37789 7.48952 3.34926 7.48952C2.5812 8.07686 1.63243 8.4383 0.593297 8.4383C0.412578 8.4383 0.231859 8.4383 0.0737305 8.41571C1.06768 9.04822 2.21976 9.40966 3.4848 9.40966C7.57355 9.40966 9.80995 6.02119 9.80995 3.08451C9.80995 2.99415 9.80995 2.8812 9.80995 2.79084C10.2392 2.49717 10.6232 2.11314 10.9169 1.66135Z" fill="#F9F9F7"/>
</svg>
