<svg width="16" height="16" viewBox="0 0 16 16" fill="none" xmlns="http://www.w3.org/2000/svg">
<path d="M1.25 2.33554C1.25 1.50711 1.92157 0.835541 2.75 0.835541H5.20943C5.53225 0.835541 5.81886 1.04211 5.92094 1.34837L7.0443 4.71845C7.16233 5.07253 7.00203 5.45952 6.6682 5.62644L4.97525 6.47291C5.80194 8.30645 7.27909 9.7836 9.11263 10.6103L9.9591 8.91734C10.126 8.58351 10.513 8.42321 10.8671 8.54124L14.2372 9.6646C14.5434 9.76668 14.75 10.0533 14.75 10.3761V12.8355C14.75 13.664 14.0784 14.3355 13.25 14.3355H12.5C6.2868 14.3355 1.25 9.29874 1.25 3.08554V2.33554Z" stroke="#F9F9F7" stroke-width="1.5" stroke-linecap="round" stroke-linejoin="round"/>
</svg>
